<svg width="73" height="18" viewBox="0 0 73 18" fill="none" xmlns="http://www.w3.org/2000/svg">
<path d="M0.856806 14V0.21737H3.12109V7.32527L9.44141 0.21737H12.1979L7.13775 6.00607L12.572 14H9.83521L5.50352 7.67968L3.12109 10.3574V14H0.856806ZM18.0383 14.1181C14.8683 14.1181 12.8797 12.0704 12.8797 8.97918C12.8797 5.86825 14.8683 3.80085 17.8414 3.80085C20.7555 3.80085 22.7047 5.65166 22.7638 8.60508C22.7638 8.86105 22.7441 9.1367 22.7047 9.41235H15.1046V9.55018C15.1637 11.2632 16.2466 12.3855 17.9202 12.3855C19.2197 12.3855 20.1648 11.7357 20.4601 10.6134H22.5866C22.2322 12.602 20.5389 14.1181 18.0383 14.1181ZM15.1834 7.85689H20.5586C20.3814 6.36049 19.3378 5.51384 17.8611 5.51384C16.5026 5.51384 15.3409 6.41955 15.1834 7.85689ZM26.9355 14.0591L23.0173 3.91899H25.2816L28.0972 11.5782L30.834 3.91899H33.0983L28.5304 15.5752C27.9003 17.2094 27.4671 17.9379 25.9904 17.9379H23.7064V16.0674H25.2028C26.0298 16.0674 26.2267 15.8705 26.5417 15.0435L26.9355 14.0591ZM34.3904 14V0.21737H37.3242L41.7346 11.0663L46.0663 0.21737H48.941V14H46.7554V3.85992L42.6206 14H40.7108L36.576 3.85992V14H34.3904ZM60.463 12.1492H60.8962V14H59.7739C58.3956 14 57.923 13.3896 57.923 12.3855C57.2536 13.4093 56.2298 14.1181 54.5955 14.1181C52.3903 14.1181 50.8545 13.0352 50.8545 11.1647C50.8545 9.09732 52.3509 7.93564 55.1665 7.93564H57.7065V7.32527C57.7065 6.20297 56.8992 5.51384 55.5012 5.51384C54.2411 5.51384 53.3945 6.10452 53.237 6.99055H51.1499C51.3665 5.0216 53.0597 3.80085 55.5997 3.80085C58.2775 3.80085 59.8132 5.08067 59.8132 7.4631V11.4994C59.8132 12.0114 60.0298 12.1492 60.463 12.1492ZM57.7065 9.86521V9.5108H55.0681C53.7489 9.5108 53.0204 10.003 53.0204 11.0269C53.0204 11.8735 53.7292 12.4642 54.8909 12.4642C56.6629 12.4642 57.6868 11.4207 57.7065 9.86521ZM67.4494 3.80085C70.2059 3.80085 72.2142 5.73042 72.2142 8.9595C72.2142 12.0704 70.2059 14.1181 67.4494 14.1181C65.8939 14.1181 64.811 13.4881 64.1809 12.5824V17.9379H62.0544V3.91899H63.9053L64.1612 5.41539C64.8307 4.52936 65.8742 3.80085 67.4494 3.80085ZM67.095 12.3264C68.867 12.3264 70.0484 10.9284 70.0484 8.9595C70.0484 6.97086 68.867 5.61229 67.095 5.61229C65.3229 5.61229 64.1612 6.97086 64.1612 8.92012C64.1612 10.9284 65.3229 12.3264 67.095 12.3264Z" fill="#3B3B3B"/>
</svg>
